<?xml version="1.0" encoding="UTF-8" standalone="no"?>
<!-- Created with Inkscape (http://www.inkscape.org/) -->

<svg
   version="1.1"
   id="svg1"
   width="436.79999"
   height="436.79999"
   viewBox="0 0 436.79999 436.79999"
   sodipodi:docname="logoleonardo2b.svg"
   inkscape:version="1.4.1-rc (06eac75fbf, 2025-03-29)"
   xmlns:inkscape="http://www.inkscape.org/namespaces/inkscape"
   xmlns:sodipodi="http://sodipodi.sourceforge.net/DTD/sodipodi-0.dtd"
   xmlns="http://www.w3.org/2000/svg"
   xmlns:svg="http://www.w3.org/2000/svg">
  <defs
     id="defs1" />
  <sodipodi:namedview
     id="namedview1"
     pagecolor="#ffffff"
     bordercolor="#000000"
     borderopacity="0.25"
     inkscape:showpageshadow="2"
     inkscape:pageopacity="0.0"
     inkscape:pagecheckerboard="0"
     inkscape:deskcolor="#d1d1d1"
     inkscape:zoom="1.735348"
     inkscape:cx="218.11187"
     inkscape:cy="218.39999"
     inkscape:window-width="1920"
     inkscape:window-height="963"
     inkscape:window-x="0"
     inkscape:window-y="0"
     inkscape:window-maximized="1"
     inkscape:current-layer="g1" />
  <g
     inkscape:groupmode="layer"
     inkscape:label="Image"
     id="g1">
    <path
       style="fill:#000000"
       d="m 209.13927,422.82136 c -0.33328,-0.20938 -0.44856,-1.92794 -0.52004,-7.75269 -0.0624,-5.08646 -0.2564,-8.40622 -0.60556,-10.36368 -2.19264,-12.29236 -7.39049,-21.49305 -18.26348,-32.32812 -6.06888,-6.04771 -10.73022,-9.94786 -23.88637,-19.98575 -10.09564,-7.70278 -21.44045,-20.88985 -29.53849,-34.33518 -9.45637,-15.70058 -13.00155,-27.96822 -13.01334,-45.03095 -0.0195,-28.28247 10.45062,-57.37849 30.04841,-83.50291 1.77535,-2.36661 3.16415,-4.36669 3.08621,-4.44462 -0.32234,-0.32234 -2.89409,1.98826 -8.63912,7.76186 -11.04103,11.09592 -17.38902,19.08342 -24.30768,30.58567 -10.15102,16.87604 -16.38035,35.48418 -18.80033,56.16 -0.55269,4.72205 -0.55126,23.13628 0.002,27.84 1.30195,11.06583 2.81598,18.69015 5.68457,28.62617 0.898,3.11042 0.96148,3.85383 0.32909,3.85383 -0.66044,0 -7.32111,-4.93298 -12.667805,-9.38196 -14.61531,-12.16149 -26.41601,-27.17381 -33.14538,-42.16623 -11.32038,-25.22078 -10.63781,-52.64133 1.93437,-77.70956 10.92546,-21.78474 29.73846,-40.69285 56.362335,-56.64728 7.6244,-4.56894 14.14546,-7.9859 20.90718,-10.95512 2.71609,-1.1927 5.09209,-2.32246 5.28,-2.51057 0.48082,-0.48136 -1.51105,-0.16332 -7.49835,1.19729 -50.753055,11.53353 -93.222205,39.31634 -120.381295,78.75201 -3.89194,5.65119 -4.56743,6.42813 -5.11731,5.88586 -1.03894,-1.02456 -0.603,-14.37981 0.71761,-21.98444 5.41769,-31.19727 26.57085,-63.93743 53.58099,-82.93085 11.35337,-7.98364 28.77508,-15.50434 49.120005,-21.20438 12.6669,-3.548892 27.58271,-6.091912 35.78666,-6.101322 5.67204,-0.007 2.59429,-1.31443 -8.26666,-3.51302 -11.95315,-2.41967 -19.06094,-3.20049 -31.2,-3.42741 -18.230555,-0.34079 -32.206445,1.59185 -52.480945,7.25727 -7.95383,2.22258 -8.35682,2.16694 -6.13558,-0.84719 11.85897,-16.09214 28.77555,-28.41024 48.028535,-34.97281 13.90262,-4.73885 24.54914,-6.20557 44.98799,-6.1978 22.87372,0.009 44.28904,2.74934 57.99999,7.4226 1.54,0.52489 2.8,0.91062 2.8,0.85717 0,-0.2819 -3.07348,-2.04191 -8.1875,-4.68853 -10.45134,-5.4088 -18.9494,-10.66798 -25.0925,-15.528951 -3.80939,-3.014331 -9.76027,-9.101171 -11.78413,-12.053369 -1.69172,-2.467691 -3.96635,-6.943759 -4.38628,-8.631385 -0.32641,-1.3118 0.46221,-1.161467 4.62531,0.881708 12.81752,6.290615 22.51587,8.53141 52.6651,12.168218 32.39473,3.907675 52.29361,9.008069 69.12,17.716539 14.97767,7.75166 24.51718,16.88266 30.237,28.94216 3.06187,6.45555 4.38698,11.28534 5.29165,19.28707 0.63704,5.634602 0.82159,6.197102 2.31278,7.049142 1.68233,0.96126 12.74491,8.80411 18.47857,13.10043 6.41248,4.80498 10.35049,8.13681 13.44205,11.37289 4.72532,4.94624 6.30124,8.13393 7.81972,15.81734 0.80205,4.05828 1.04781,4.79353 2.0658,6.1803 1.44454,1.96786 4.90269,4.79558 12.9553,10.59352 24.9692,17.97802 38.40408,30.11357 40.99038,37.02609 1.78224,4.76346 0.39672,8.12421 -7.93672,19.25157 -5.19068,6.93094 -5.90179,8.38732 -7.41017,15.17626 -1.85617,8.35428 -12.38373,23.72696 -15.44443,22.55246 -0.27827,-0.10678 -0.57383,-0.79964 -0.69999,-1.64091 -0.75738,-5.05059 -10.94084,-6.52983 -26.64196,-3.86998 -7.52564,1.27487 -16.43911,3.77589 -20.25307,5.68278 -3.83513,1.91747 -4.81326,5.35912 -1.82518,6.42205 0.89158,0.31716 4.6785,-0.57826 9.97827,-2.35935 10.61233,-3.56649 20.60696,-5.51838 28.48,-5.56196 4.689,-0.026 5.24122,0.0319 6.56,0.68691 0.792,0.39338 1.7791,1.21634 2.19357,1.82878 3.62028,5.34966 2.63211,18.09816 -2.13827,27.58597 -2.27408,4.52292 -7.40063,10.46782 -11.39931,13.21899 -6.81593,4.68949 -15.37295,5.45789 -24.40097,2.19117 -4.50048,-1.62846 -8.32306,-3.80291 -18.10065,-10.2964 -5.1449,-3.41684 -10.79437,-7.03877 -12.55437,-8.04873 -9.85316,-5.6542 -22.39129,-8.95711 -26.4,-6.95454 -1.54285,0.77074 -2.56,2.85018 -2.56,5.2336 0,2.60947 0.94512,5.26615 3.68769,10.3659 7.31234,13.59716 9.61253,19.82696 10.73745,29.08125 0.58688,4.82802 0.21219,13.51111 -0.78391,18.16645 -2.63669,12.32279 -9.01584,23.48382 -18.56652,32.48419 -3.77681,3.5592 -8.12331,6.79765 -14.89185,11.0955 -5.32722,3.38263 -7.17616,4.36597 -7.53483,4.0073 -0.097,-0.097 0.32373,-1.27389 0.93502,-2.61527 1.63762,-3.59352 4.44672,-11.97498 5.7455,-17.14278 7.06741,-28.1209 0.28394,-50.9961 -22.96628,-77.44682 -1.76468,-2.0076 -6.08173,-6.6156 -9.59345,-10.24 -21.28946,-21.97262 -30.46827,-35.10781 -34.9424,-50.00376 -4.02756,-13.40919 -3.95021,-30.95807 0.19312,-43.81031 1.2364,-3.83521 3.92894,-9.46218 6.18075,-12.91676 1.36167,-2.08899 4.94453,-6.58936 6.26453,-7.86878 0.0964,-0.0934 0.96718,-1.01561 1.93518,-2.04939 1.76,-1.8796 1.76,-1.8796 0.48,-1.13239 -20.47117,11.95022 -30.44549,26.07006 -32.50754,46.01831 -0.54087,5.23229 -0.21284,16.43809 0.62449,21.33326 1.9762,11.55328 6.33031,20.73103 15.02963,31.68 3.93965,4.95845 14.71764,15.72502 23.24517,23.22052 15.98284,14.04857 24.00993,22.60602 31.04812,33.09948 8.73536,13.02384 12.90174,27.53623 11.75184,40.93415 -1.321,15.39152 -8.02349,28.92993 -20.54169,41.49227 -8.76685,8.79777 -17.75697,15.04436 -30.80373,21.40331 -5.72121,2.7885 -6.28606,3.00144 -6.9145,2.60664 z m 14.18879,-26.12635 c 8.8618,-18.03423 7.23383,-36.79633 -4.7749,-55.03002 -3.01911,-4.58413 -4.82027,-6.81604 -12.65381,-15.68 -22.25029,-25.17709 -30.79542,-37.55395 -36.01186,-52.16 -1.6,-4.48 -1.6,-4.48 -1.69298,-1.6445 -0.22108,6.74236 2.61956,17.09156 7.21455,26.2845 5.3624,10.72823 12.30345,20.57231 24.31432,34.48349 13.20799,15.29771 19.30633,28.55758 21.40706,46.5462 0.6036,5.16862 0.42773,16.39336 -0.31431,20.06058 -0.44451,2.19683 -0.44351,2.20558 0.16506,1.44 0.33676,-0.42365 1.39285,-2.35876 2.34687,-4.30025 z m 61.42342,-137.09207 c -0.1672,-0.16613 -2.79624,-1.60849 -5.84231,-3.20524 -22.63346,-11.86446 -38.76502,-27.11189 -42.61921,-40.28336 -0.37831,-1.29286 -0.76332,-2.27517 -0.85559,-2.1829 -0.51618,0.51618 4.64469,15.59824 6.62904,19.3726 6.63951,12.62873 17.94488,20.3454 37.30438,25.46273 4.22767,1.1175 5.93348,1.38244 5.38369,0.83617 z m 117.23679,-38.24919 c 1.36112,-2.72411 1.73589,-5.83345 0.89832,-7.45313 -1.08259,-2.09349 -3.48621,-3.34013 -8.17799,-4.24152 -3.87221,-0.74393 -11.85301,-1.70888 -12.09901,-1.46288 -0.97607,0.97607 6.6714,8.41634 14.10521,13.72304 3.39907,2.42646 3.79998,2.38347 5.27347,-0.56551 z M 346.94391,171.665 c -3.02558,-3.50968 -4.64386,-5.73068 -5.63319,-7.73122 -1.09571,-2.21566 -1.18153,-2.59518 -1.16017,-5.13072 0.0127,-1.50593 0.13577,-3.60206 0.27352,-4.65806 0.23142,-1.77402 0.19318,-1.9717 -0.50306,-2.59993 -1.24169,-1.1204 -3.68851,-1.68919 -8.75353,-2.03486 -5.23493,-0.35727 -29.21917,-0.83257 -28.96,-0.5739 0.088,0.0878 2.32,1.15797 4.96,2.37809 5.95766,2.75345 8.45508,4.2098 12.76188,7.44198 2.45733,1.84419 3.8883,2.68233 5.23047,3.06357 5.17475,1.46985 12.86975,5.06733 19.76765,9.24153 2.10088,1.27133 2.76296,1.46949 2.01643,0.60352 z m -117.55012,-25.6 c -0.31201,-0.484 -1.86966,-2.68 -3.46144,-4.88 -5.44151,-7.52073 -8.10571,-12.51033 -10.00341,-18.73473 -0.76523,-2.50994 -0.87653,-3.42082 -0.89751,-7.34526 -0.0273,-5.10267 0.40626,-7.06025 2.13327,-9.63247 0.76416,-1.13815 1.55008,-1.81157 2.94141,-2.52034 1.79572,-0.91476 2.09058,-0.96493 5.44,-0.92559 3.92119,0.0461 6.25792,0.5556 11.55522,2.51974 4.53151,1.68019 13.06352,5.94423 20.13609,10.06342 3.33847,1.94438 6.24808,3.53524 6.46581,3.53524 0.53367,0 -0.19262,-2.04223 -1.70602,-4.79707 -6.64693,-12.09941 -24.72648,-22.422272 -39.30129,-22.439832 -6.16925,-0.007 -10.28702,1.42435 -14.07258,4.89313 -2.67954,2.45531 -4.4434,5.140802 -5.49975,8.373402 -1.15301,3.52839 -1.23406,8.69711 -0.19683,12.55149 2.52147,9.36979 9.12406,18.15754 19.14983,25.48758 2.21713,1.62098 7.19787,4.73129 7.57653,4.73129 0.16938,0 0.0527,-0.396 -0.25933,-0.88 z"
       id="path1" />
  </g>
</svg>
